# xmcd
#
# Track frame offsets: 
#        150
#        16002
#        31612
#        47452
#        62905
#        79007
#        94567
#        113915
#        137580
#        155425
#        175280
#        190165
#        207502
#        221947
#        238210
#        251977
#        268987
#        294480
#
# Disc length: 4158 seconds
#
# Revision: 1
# Processed by: cddbd v1.5.1PL2 Copyright (c) Steve Scherf et al.
# Submitted via: ExactAudioCopy v0.95a5
#
DISCID=05103c12
DTITLE=Various Artist - What's Up 5
DYEAR=1998
DGENRE=
TTITLE0=Le Disc Jockey (Radio Edit)
TTITLE1=Stay (Original Single Edit)
TTITLE2=Nowhere To Hide (Radio Version)
TTITLE3=Alarma (Radio Alert)
TTITLE4=Rock Me (7" Mix)
TTITLE5=In The Bush (Push) (Original Single Edit)
TTITLE6=Prince Igor (Album Version)
TTITLE7=Madame Butterfly (Un Bel Di Vedremo) (Microwave's Dream Vesion
TTITLE7=)
TTITLE8=Far Away (Single Remix)
TTITLE9=I Will Survive (La La La) (Party Mix)
TTITLE10=Caramba (Video/Radio Edit)
TTITLE11=Where Is Your Love (Radio Version)
TTITLE12=Wanna Get Up (Original Edit)
TTITLE13=Mr.DJ (Tokapi-Sash! Mix)
TTITLE14=Phenomenon (Radio Edit)
TTITLE15=Owner Of A Lonely Heart (Radio Mix)
TTITLE16=Ultrafunkula (Edit)
TTITLE17=Treat Infamy (7" Main Mix)
EXTD=What's Up 5
EXTT0=
EXTT1=
EXTT2=
EXTT3=
EXTT4=
EXTT5=
EXTT6=
EXTT7=
EXTT8=
EXTT9=
EXTT10=
EXTT11=
EXTT12=
EXTT13=
EXTT14=
EXTT15=
EXTT16=
EXTT17=
PLAYORDER=
